<svg t="1648345615952" class="icon" viewBox="0 0 1024 1024" version="1.1" xmlns="http://www.w3.org/2000/svg" p-id="4102"
    width="30" height="30">
    <path
        d="M192.992 651.648a32 32 0 0 1 43.68 11.776 336 336 0 0 0 277.504 168.288 32 32 0 1 1-2.624 63.936 400 400 0 0 1-330.368-200.32 32 32 0 0 1 11.84-43.68zM863.008 340.352a32 32 0 0 1-43.68-11.776 336 336 0 0 0-277.504-168.256 32 32 0 1 1 2.624-63.968 400 400 0 0 1 330.336 200.32 32 32 0 0 1-11.776 43.68z"
        fill="#222831" p-id="4103"></path>
    <path
        d="M256 128a64 64 0 1 0 0 128 64 64 0 0 0 0-128zM128 192a128 128 0 1 1 256 0 128 128 0 0 1-256 0zM768 480a64 64 0 1 0 0 128 64 64 0 0 0 0-128z m-128 64a128 128 0 1 1 256 0 128 128 0 0 1-256 0zM256 416a128 128 0 0 0-128 128v32a32 32 0 1 1-64 0v-32a192 192 0 0 1 384 0v32a32 32 0 1 1-64 0v-32a128 128 0 0 0-128-128zM768 768a128 128 0 0 0-128 128v32a32 32 0 1 1-64 0v-32a192 192 0 0 1 384 0v32a32 32 0 1 1-64 0v-32a128 128 0 0 0-128-128z"
        fill="#32E0C4" p-id="4104"></path>
</svg>